<mxfile host="app.diagrams.net" modified="2024-01-23T05:55:40.936Z" agent="Mozilla/5.0 (Windows NT 10.0; Win64; x64) AppleWebKit/537.36 (KHTML, like Gecko) Chrome/120.0.0.0 Safari/537.36 Edg/120.0.0.0" etag="QSBGosPSBnAblAHB4nZJ" version="22.1.21" type="github">
  <diagram name="Page-1" id="AncwzA2ml5umlM7gHB86">
    <mxGraphModel dx="1514" dy="831" grid="1" gridSize="10" guides="1" tooltips="1" connect="1" arrows="1" fold="1" page="1" pageScale="1" pageWidth="850" pageHeight="1100" math="0" shadow="0">
      <root>
        <mxCell id="0" />
        <mxCell id="1" parent="0" />
        <mxCell id="F2ztioaFAJeFgCl4L1l8-2" value="The love of whom" style="rounded=0;whiteSpace=wrap;html=1;" parent="1" vertex="1">
          <mxGeometry x="340" y="120" width="120" height="60" as="geometry" />
        </mxCell>
        <mxCell id="F2ztioaFAJeFgCl4L1l8-3" value="Name1" style="ellipse;whiteSpace=wrap;html=1;" parent="1" vertex="1">
          <mxGeometry x="200" y="240" width="120" height="80" as="geometry" />
        </mxCell>
        <mxCell id="F2ztioaFAJeFgCl4L1l8-4" value="Name2" style="ellipse;whiteSpace=wrap;html=1;" parent="1" vertex="1">
          <mxGeometry x="480" y="240" width="120" height="80" as="geometry" />
        </mxCell>
        <mxCell id="F2ztioaFAJeFgCl4L1l8-7" value="" style="endArrow=none;html=1;rounded=0;entryX=0;entryY=1;entryDx=0;entryDy=0;exitX=0.69;exitY=0.055;exitDx=0;exitDy=0;exitPerimeter=0;" parent="1" source="F2ztioaFAJeFgCl4L1l8-3" target="F2ztioaFAJeFgCl4L1l8-2" edge="1">
          <mxGeometry width="50" height="50" relative="1" as="geometry">
            <mxPoint x="280" y="250" as="sourcePoint" />
            <mxPoint x="330" y="200" as="targetPoint" />
          </mxGeometry>
        </mxCell>
        <mxCell id="F2ztioaFAJeFgCl4L1l8-8" value="" style="endArrow=none;html=1;rounded=0;entryX=0.447;entryY=1.06;entryDx=0;entryDy=0;entryPerimeter=0;exitX=0.297;exitY=0.075;exitDx=0;exitDy=0;exitPerimeter=0;" parent="1" source="F2ztioaFAJeFgCl4L1l8-4" edge="1">
          <mxGeometry width="50" height="50" relative="1" as="geometry">
            <mxPoint x="520" y="250" as="sourcePoint" />
            <mxPoint x="460.0000000000001" y="180.00000000000003" as="targetPoint" />
          </mxGeometry>
        </mxCell>
        <mxCell id="F2ztioaFAJeFgCl4L1l8-11" value="" style="endArrow=none;html=1;rounded=0;entryX=0.5;entryY=1;entryDx=0;entryDy=0;" parent="1" target="F2ztioaFAJeFgCl4L1l8-3" edge="1">
          <mxGeometry width="50" height="50" relative="1" as="geometry">
            <mxPoint x="400" y="390" as="sourcePoint" />
            <mxPoint x="259.5" y="330" as="targetPoint" />
          </mxGeometry>
        </mxCell>
        <mxCell id="F2ztioaFAJeFgCl4L1l8-12" value="" style="endArrow=none;html=1;rounded=0;entryX=0.5;entryY=1;entryDx=0;entryDy=0;" parent="1" edge="1">
          <mxGeometry width="50" height="50" relative="1" as="geometry">
            <mxPoint x="400" y="390" as="sourcePoint" />
            <mxPoint x="540" y="320" as="targetPoint" />
          </mxGeometry>
        </mxCell>
        <mxCell id="F2ztioaFAJeFgCl4L1l8-13" value="combine into single string, make all uppercase." style="rounded=0;whiteSpace=wrap;html=1;" parent="1" vertex="1">
          <mxGeometry x="340" y="390" width="120" height="60" as="geometry" />
        </mxCell>
        <mxCell id="F2ztioaFAJeFgCl4L1l8-14" value="Count &quot;T&quot;" style="rounded=0;whiteSpace=wrap;html=1;" parent="1" vertex="1">
          <mxGeometry x="340" y="480" width="120" height="30" as="geometry" />
        </mxCell>
        <mxCell id="F2ztioaFAJeFgCl4L1l8-15" value="" style="endArrow=none;html=1;rounded=0;entryX=0.5;entryY=1;entryDx=0;entryDy=0;" parent="1" target="F2ztioaFAJeFgCl4L1l8-13" edge="1">
          <mxGeometry width="50" height="50" relative="1" as="geometry">
            <mxPoint x="400" y="480" as="sourcePoint" />
            <mxPoint x="399" y="452" as="targetPoint" />
          </mxGeometry>
        </mxCell>
        <mxCell id="F2ztioaFAJeFgCl4L1l8-18" value="Count &quot;R&quot;" style="rounded=0;whiteSpace=wrap;html=1;" parent="1" vertex="1">
          <mxGeometry x="365" y="510" width="120" height="30" as="geometry" />
        </mxCell>
        <mxCell id="F2ztioaFAJeFgCl4L1l8-19" value="Count &quot;U&quot;" style="rounded=0;whiteSpace=wrap;html=1;" parent="1" vertex="1">
          <mxGeometry x="390" y="540" width="120" height="30" as="geometry" />
        </mxCell>
        <mxCell id="F2ztioaFAJeFgCl4L1l8-20" value="Count &quot;E&quot;" style="rounded=0;whiteSpace=wrap;html=1;" parent="1" vertex="1">
          <mxGeometry x="420" y="570" width="120" height="30" as="geometry" />
        </mxCell>
        <mxCell id="F2ztioaFAJeFgCl4L1l8-21" value="Tens" style="ellipse;whiteSpace=wrap;html=1;" parent="1" vertex="1">
          <mxGeometry x="220" y="590" width="120" height="80" as="geometry" />
        </mxCell>
        <mxCell id="F2ztioaFAJeFgCl4L1l8-22" value="Singular" style="ellipse;whiteSpace=wrap;html=1;" parent="1" vertex="1">
          <mxGeometry x="310" y="760" width="120" height="80" as="geometry" />
        </mxCell>
        <mxCell id="F2ztioaFAJeFgCl4L1l8-23" value="" style="endArrow=none;html=1;rounded=0;exitX=0.674;exitY=0.025;exitDx=0;exitDy=0;exitPerimeter=0;" parent="1" source="F2ztioaFAJeFgCl4L1l8-21" edge="1">
          <mxGeometry width="50" height="50" relative="1" as="geometry">
            <mxPoint x="290" y="560" as="sourcePoint" />
            <mxPoint x="340" y="510" as="targetPoint" />
          </mxGeometry>
        </mxCell>
        <mxCell id="F2ztioaFAJeFgCl4L1l8-24" value="" style="endArrow=none;html=1;rounded=0;exitX=0.808;exitY=0.102;exitDx=0;exitDy=0;exitPerimeter=0;" parent="1" source="F2ztioaFAJeFgCl4L1l8-21" edge="1">
          <mxGeometry width="50" height="50" relative="1" as="geometry">
            <mxPoint x="315" y="590" as="sourcePoint" />
            <mxPoint x="365" y="540" as="targetPoint" />
          </mxGeometry>
        </mxCell>
        <mxCell id="F2ztioaFAJeFgCl4L1l8-25" value="" style="endArrow=none;html=1;rounded=0;exitX=0.943;exitY=0.28;exitDx=0;exitDy=0;exitPerimeter=0;" parent="1" source="F2ztioaFAJeFgCl4L1l8-21" edge="1">
          <mxGeometry width="50" height="50" relative="1" as="geometry">
            <mxPoint x="340" y="620" as="sourcePoint" />
            <mxPoint x="390" y="570" as="targetPoint" />
          </mxGeometry>
        </mxCell>
        <mxCell id="F2ztioaFAJeFgCl4L1l8-26" value="" style="endArrow=none;html=1;rounded=0;exitX=1.005;exitY=0.539;exitDx=0;exitDy=0;exitPerimeter=0;" parent="1" source="F2ztioaFAJeFgCl4L1l8-21" edge="1">
          <mxGeometry width="50" height="50" relative="1" as="geometry">
            <mxPoint x="370" y="650" as="sourcePoint" />
            <mxPoint x="420" y="600" as="targetPoint" />
          </mxGeometry>
        </mxCell>
        <mxCell id="F2ztioaFAJeFgCl4L1l8-27" value="" style="endArrow=none;html=1;rounded=0;" parent="1" edge="1">
          <mxGeometry width="50" height="50" relative="1" as="geometry">
            <mxPoint x="480" y="650" as="sourcePoint" />
            <mxPoint x="480" y="600" as="targetPoint" />
          </mxGeometry>
        </mxCell>
        <mxCell id="F2ztioaFAJeFgCl4L1l8-28" value="Count &quot;L&quot;" style="rounded=0;whiteSpace=wrap;html=1;" parent="1" vertex="1">
          <mxGeometry x="420" y="650" width="120" height="30" as="geometry" />
        </mxCell>
        <mxCell id="F2ztioaFAJeFgCl4L1l8-29" value="Count &quot;O&quot;" style="rounded=0;whiteSpace=wrap;html=1;" parent="1" vertex="1">
          <mxGeometry x="450" y="680" width="120" height="30" as="geometry" />
        </mxCell>
        <mxCell id="F2ztioaFAJeFgCl4L1l8-30" value="Count &quot;V&quot;" style="rounded=0;whiteSpace=wrap;html=1;" parent="1" vertex="1">
          <mxGeometry x="480" y="710" width="120" height="30" as="geometry" />
        </mxCell>
        <mxCell id="F2ztioaFAJeFgCl4L1l8-31" value="Count &quot;E&quot;" style="rounded=0;whiteSpace=wrap;html=1;" parent="1" vertex="1">
          <mxGeometry x="510" y="740" width="120" height="30" as="geometry" />
        </mxCell>
        <mxCell id="F2ztioaFAJeFgCl4L1l8-32" value="" style="endArrow=none;html=1;rounded=0;exitX=0.674;exitY=0.025;exitDx=0;exitDy=0;exitPerimeter=0;" parent="1" edge="1">
          <mxGeometry width="50" height="50" relative="1" as="geometry">
            <mxPoint x="381" y="762" as="sourcePoint" />
            <mxPoint x="420" y="680" as="targetPoint" />
          </mxGeometry>
        </mxCell>
        <mxCell id="F2ztioaFAJeFgCl4L1l8-33" value="" style="endArrow=none;html=1;rounded=0;exitX=0.808;exitY=0.102;exitDx=0;exitDy=0;exitPerimeter=0;" parent="1" edge="1">
          <mxGeometry width="50" height="50" relative="1" as="geometry">
            <mxPoint x="402" y="768" as="sourcePoint" />
            <mxPoint x="450" y="710" as="targetPoint" />
          </mxGeometry>
        </mxCell>
        <mxCell id="F2ztioaFAJeFgCl4L1l8-34" value="" style="endArrow=none;html=1;rounded=0;exitX=0.943;exitY=0.28;exitDx=0;exitDy=0;exitPerimeter=0;" parent="1" edge="1">
          <mxGeometry width="50" height="50" relative="1" as="geometry">
            <mxPoint x="423" y="782" as="sourcePoint" />
            <mxPoint x="480" y="740" as="targetPoint" />
          </mxGeometry>
        </mxCell>
        <mxCell id="F2ztioaFAJeFgCl4L1l8-35" value="" style="endArrow=none;html=1;rounded=0;exitX=1.005;exitY=0.539;exitDx=0;exitDy=0;exitPerimeter=0;" parent="1" edge="1">
          <mxGeometry width="50" height="50" relative="1" as="geometry">
            <mxPoint x="431" y="803" as="sourcePoint" />
            <mxPoint x="510" y="770" as="targetPoint" />
          </mxGeometry>
        </mxCell>
        <mxCell id="F2ztioaFAJeFgCl4L1l8-36" value="str(tens) + str(singular)" style="rounded=0;whiteSpace=wrap;html=1;" parent="1" vertex="1">
          <mxGeometry x="80" y="1000" width="120" height="60" as="geometry" />
        </mxCell>
        <mxCell id="F2ztioaFAJeFgCl4L1l8-37" value="" style="endArrow=none;html=1;rounded=0;entryX=0.072;entryY=0.79;entryDx=0;entryDy=0;entryPerimeter=0;exitX=0.139;exitY=0.031;exitDx=0;exitDy=0;exitPerimeter=0;" parent="1" source="F2ztioaFAJeFgCl4L1l8-36" target="F2ztioaFAJeFgCl4L1l8-21" edge="1">
          <mxGeometry width="50" height="50" relative="1" as="geometry">
            <mxPoint x="350" y="910" as="sourcePoint" />
            <mxPoint x="400" y="860" as="targetPoint" />
          </mxGeometry>
        </mxCell>
        <mxCell id="F2ztioaFAJeFgCl4L1l8-38" value="" style="endArrow=none;html=1;rounded=0;exitX=0.45;exitY=-0.003;exitDx=0;exitDy=0;exitPerimeter=0;entryX=0.606;entryY=0.99;entryDx=0;entryDy=0;entryPerimeter=0;" parent="1" source="F2ztioaFAJeFgCl4L1l8-36" target="F2ztioaFAJeFgCl4L1l8-22" edge="1">
          <mxGeometry width="50" height="50" relative="1" as="geometry">
            <mxPoint x="320" y="900" as="sourcePoint" />
            <mxPoint x="370" y="850" as="targetPoint" />
          </mxGeometry>
        </mxCell>
      </root>
    </mxGraphModel>
  </diagram>
</mxfile>
